<svg width="460" height="452" viewBox="0 0 460 452" fill="none" xmlns="http://www.w3.org/2000/svg">
<path d="M3.67499 147.275L96.459 146.118V449.949L3.67499 451.127V147.276V147.275Z" fill="black"/>
<path d="M174.141 147.275L262.799 146.149V184.795L262.82 195.742C289.075 169.998 316.14 150.542 359.383 150.542C410.399 150.542 459.745 171.923 459.745 241.576V450.011L369.745 451.352V292.12C369.745 257.017 360.949 234.387 319.026 234.387C282.091 234.387 266.628 241.002 266.628 289.601V450L174.15 451.116V147.275H174.141Z" fill="black"/>
<path d="M101.836 51.449C101.836 79.5 79.096 102.239 51.046 102.239C22.996 102.239 0.255005 79.5 0.255005 51.448C0.255005 23.397 22.994 0.656982 51.046 0.656982C79.097 0.656982 101.837 23.396 101.837 51.448L101.836 51.449Z" fill="black"/>
</svg>
